<?xml version="1.0" encoding="utf-8"?>
<!-- Generator: Adobe Illustrator 18.1.0, SVG Export Plug-In . SVG Version: 6.00 Build 0)  -->
<svg version="1.1" id="Capa_1" xmlns="http://www.w3.org/2000/svg" xmlns:xlink="http://www.w3.org/1999/xlink" x="0px" y="0px"
	 viewBox="-370.8 843 992 200.2" enable-background="new -370.8 843 992 200.2" xml:space="preserve">
<g>
	<g>
		<path d="M-81.9,908.7v9.6h-20.6v64.2h-12v-64.2H-135v-9.6H-81.9z"/>
		<path d="M-72.9,903.2c1.4-1.3,3.2-2,5.5-2c2.3,0,4.2,0.7,5.6,2c1.4,1.3,2.1,3,2.1,5c0,2-0.7,3.7-2.1,4.9c-1.4,1.3-3.3,1.9-5.6,1.9
			c-2.3,0-4.2-0.6-5.5-1.9c-1.4-1.3-2.1-2.9-2.1-4.9C-75,906.1-74.3,904.5-72.9,903.2z M-61.4,924.9v57.6h-11.9v-57.6H-61.4z"/>
		<path d="M4.8,956.1h-44.4c0.2,5.9,1.8,10.3,4.9,13.2c3.1,2.9,6.9,4.3,11.4,4.3c4,0,7.3-1,10.1-3c2.8-2,4.4-4.7,5.1-8.1H4.7
			c-0.8,4-2.4,7.6-4.8,10.8c-2.4,3.1-5.6,5.6-9.5,7.4c-3.9,1.8-8.3,2.7-13.1,2.7c-5.6,0-10.5-1.2-14.8-3.6
			c-4.3-2.4-7.7-5.8-10.1-10.3c-2.4-4.5-3.7-9.7-3.7-15.8c0-6,1.2-11.2,3.7-15.7c2.4-4.5,5.8-7.9,10.1-10.3
			c4.3-2.4,9.2-3.6,14.8-3.6c5.6,0,10.6,1.2,14.8,3.5c4.2,2.3,7.5,5.5,9.7,9.6c2.3,4.1,3.4,8.6,3.4,13.7
			C5.2,952.9,5.1,954.6,4.8,956.1z M-8.8,941.2c-1.4-2.5-3.4-4.4-5.9-5.6c-2.5-1.2-5.2-1.8-8.1-1.8c-4.7,0-8.6,1.4-11.7,4.3
			c-3.1,2.9-4.8,7.1-5.1,12.7h32.7C-6.7,946.9-7.3,943.7-8.8,941.2z"/>
		<path d="M64,930.5c4,4.3,6.1,10.5,6.1,18.5v33.6H58.1v-32.3c0-5.2-1.3-9.2-4-12c-2.7-2.8-6.3-4.2-10.9-4.2
			c-4.7,0-8.5,1.5-11.4,4.6c-2.9,3-4.3,7.5-4.3,13.3v30.6H15.6v-57.6h11.9v12.7c1.5-4.3,4.1-7.7,7.7-10c3.6-2.4,7.8-3.6,12.6-3.6
			C54.6,924,59.9,926.1,64,930.5z"/>
		<path d="M119.3,928c3.7,2.6,6.3,6,7.7,10.3v-33.2h12v77.4h-12v-13.4c-1.5,4.3-4,7.7-7.7,10.3c-3.7,2.6-8.2,3.9-13.4,3.9
			c-5,0-9.5-1.2-13.4-3.6c-3.9-2.4-7-5.8-9.3-10.3c-2.2-4.5-3.3-9.7-3.3-15.8c0-6,1.1-11.2,3.3-15.7c2.2-4.5,5.3-7.9,9.3-10.3
			c3.9-2.4,8.4-3.6,13.4-3.6C111.2,924.2,115.6,925.5,119.3,928z M96.9,939.7c-3.2,3.4-4.8,8-4.8,14c0,5.9,1.6,10.6,4.8,14
			c3.2,3.4,7.4,5.1,12.7,5.1c3.3,0,6.3-0.8,9-2.4c2.6-1.6,4.7-3.8,6.3-6.6c1.5-2.9,2.3-6.2,2.3-10c0-3.8-0.8-7.1-2.3-10
			c-1.5-2.9-3.6-5.1-6.3-6.7c-2.7-1.6-5.6-2.4-9-2.4C104.3,934.6,100.1,936.3,96.9,939.7z"/>
		<path d="M189,928c3.7,2.6,6.3,6,7.8,10.3v-13.4h11.9v57.6h-11.9v-13.4c-1.5,4.3-4.2,7.7-7.8,10.3c-3.7,2.6-8.2,3.9-13.4,3.9
			c-5,0-9.5-1.2-13.4-3.6c-3.9-2.4-7-5.8-9.3-10.3c-2.2-4.5-3.3-9.7-3.3-15.8c0-6,1.1-11.2,3.3-15.7c2.2-4.5,5.3-7.9,9.3-10.3
			c3.9-2.4,8.4-3.6,13.4-3.6C180.8,924.2,185.3,925.5,189,928z M166.5,939.7c-3.2,3.4-4.8,8-4.8,14c0,5.9,1.6,10.6,4.8,14
			c3.2,3.4,7.4,5.1,12.7,5.1c3.3,0,6.3-0.8,9-2.4c2.6-1.6,4.7-3.8,6.3-6.6c1.5-2.9,2.3-6.2,2.3-10c0-3.8-0.8-7.1-2.3-10
			c-1.5-2.9-3.6-5.1-6.3-6.7c-2.7-1.6-5.6-2.4-9-2.4C174,934.6,169.7,936.3,166.5,939.7z"/>
		<path d="M284.1,928c3.7,2.6,6.3,6,7.7,10.3v-33.2h12v77.4h-12v-13.4c-1.5,4.3-4,7.7-7.7,10.3c-3.7,2.6-8.2,3.9-13.4,3.9
			c-5,0-9.5-1.2-13.4-3.6c-3.9-2.4-7-5.8-9.3-10.3c-2.2-4.5-3.3-9.7-3.3-15.8c0-6,1.1-11.2,3.3-15.7c2.2-4.5,5.3-7.9,9.3-10.3
			c3.9-2.4,8.4-3.6,13.4-3.6C275.9,924.2,280.4,925.5,284.1,928z M261.6,939.7c-3.2,3.4-4.8,8-4.8,14c0,5.9,1.6,10.6,4.8,14
			c3.2,3.4,7.4,5.1,12.7,5.1c3.3,0,6.3-0.8,9-2.4c2.6-1.6,4.7-3.8,6.3-6.6c1.5-2.9,2.3-6.2,2.3-10c0-3.8-0.8-7.1-2.3-10
			c-1.5-2.9-3.6-5.1-6.3-6.7c-2.7-1.6-5.6-2.4-9-2.4C269,934.6,264.8,936.3,261.6,939.7z"/>
		<path d="M370.2,956.1h-44.4c0.2,5.9,1.8,10.3,4.9,13.2c3.1,2.9,6.9,4.3,11.4,4.3c4,0,7.3-1,10.1-3c2.8-2,4.4-4.7,5.1-8.1h12.8
			c-0.8,4-2.4,7.6-4.8,10.8c-2.4,3.1-5.6,5.6-9.5,7.4c-3.9,1.8-8.3,2.7-13.1,2.7c-5.6,0-10.5-1.2-14.8-3.6
			c-4.3-2.4-7.7-5.8-10.1-10.3c-2.4-4.5-3.7-9.7-3.7-15.8c0-6,1.2-11.2,3.7-15.7c2.4-4.5,5.8-7.9,10.1-10.3
			c4.3-2.4,9.2-3.6,14.8-3.6c5.6,0,10.6,1.2,14.8,3.5c4.2,2.3,7.5,5.5,9.7,9.6c2.3,4.1,3.4,8.6,3.4,13.7
			C370.6,952.9,370.4,954.6,370.2,956.1z M356.6,941.2c-1.4-2.5-3.4-4.4-5.9-5.6c-2.5-1.2-5.2-1.8-8.1-1.8c-4.7,0-8.6,1.4-11.7,4.3
			c-3.1,2.9-4.8,7.1-5.1,12.7h32.7C358.7,946.9,358,943.7,356.6,941.2z"/>
		<path d="M393.1,905.1v77.4h-11.9v-77.4H393.1z"/>
		<path d="M476,966.5h-31.2l-5.6,16h-12.8l27.2-72.7h13.7l27.1,72.7h-12.8L476,966.5z M472.7,957.3l-12.2-34.5l-12.2,34.5H472.7z"/>
		<path d="M502.5,903.2c1.4-1.3,3.2-2,5.5-2c2.3,0,4.2,0.7,5.6,2c1.4,1.3,2.1,3,2.1,5c0,2-0.7,3.7-2.1,4.9c-1.4,1.3-3.3,1.9-5.6,1.9
			c-2.3,0-4.1-0.6-5.5-1.9c-1.4-1.3-2.1-2.9-2.1-4.9C500.4,906.1,501.1,904.5,502.5,903.2z M514,924.9v57.6h-11.9v-57.6H514z"/>
		<path d="M547.7,927.3c3.6-2.2,7.8-3.3,12.6-3.3v13h-3.6c-5.2,0-9.4,1.3-12.6,3.8c-3.2,2.5-4.8,6.7-4.8,12.6v29.2h-11.9v-57.6h11.9
			v11.3C541.3,932.4,544.1,929.5,547.7,927.3z"/>
		<path d="M620.7,956.1h-44.4c0.2,5.9,1.8,10.3,4.9,13.2c3.1,2.9,6.9,4.3,11.4,4.3c4,0,7.3-1,10.1-3c2.8-2,4.4-4.7,5.1-8.1h12.8
			c-0.8,4-2.4,7.6-4.8,10.8c-2.4,3.1-5.6,5.6-9.5,7.4c-3.9,1.8-8.3,2.7-13.1,2.7c-5.6,0-10.5-1.2-14.8-3.6
			c-4.3-2.4-7.7-5.8-10.1-10.3c-2.4-4.5-3.7-9.7-3.7-15.8c0-6,1.2-11.2,3.7-15.7c2.4-4.5,5.8-7.9,10.1-10.3
			c4.3-2.4,9.2-3.6,14.8-3.6c5.7,0,10.6,1.2,14.8,3.5c4.2,2.3,7.5,5.5,9.7,9.6c2.3,4.1,3.4,8.6,3.4,13.7
			C621.1,952.9,621,954.6,620.7,956.1z M607.2,941.2c-1.4-2.5-3.4-4.4-5.9-5.6c-2.5-1.2-5.2-1.8-8.1-1.8c-4.7,0-8.6,1.4-11.7,4.3
			c-3.1,2.9-4.8,7.1-5.1,12.7h32.7C609.2,946.9,608.6,943.7,607.2,941.2z"/>
	</g>
	<g>
		<g>
			<path d="M-315.6,998.9c-12.2,0-22.1,9.9-22.1,22.1s9.9,22.1,22.1,22.1c12.2,0,22.1-9.9,22.1-22.1S-303.3,998.9-315.6,998.9z
				 M-238.1,998.9c-12.2,0-22.1,9.9-22.1,22.1s9.9,22.1,22.1,22.1c12.2,0,22.1-9.9,22.1-22.1S-225.9,998.9-238.1,998.9z
				 M-315.6,1010c6.1,0,11.1,5,11.1,11.1c0,6.1-5,11.1-11.1,11.1c-6.1,0-11.1-5-11.1-11.1C-326.6,1014.9-321.7,1010-315.6,1010z
				 M-238.1,1010c6.1,0,11.1,5,11.1,11.1c0,6.1-5,11.1-11.1,11.1c-6.1,0-11.1-5-11.1-11.1C-249.2,1014.9-244.2,1010-238.1,1010z"/>
		</g>
		<g>
			<path fill="#005AFF" d="M-309.5,923.7l50.8-50.8c4.3-4.3,4.3-11.3,0-15.6l0,0c-4.3-4.3-11.3-4.3-15.6,0l-3.9,3.9
				c-2.2,2.2-5.7,2.2-7.8,0l0,0c-2.2-2.2-2.2-5.7,0-7.8l3.9-3.9c8.6-8.6,22.6-8.6,31.3,0h0c8.6,8.6,8.6,22.6,0,31.3l-50.8,50.8
				c-2.2,2.2-5.7,2.2-7.8,0l0,0C-311.7,929.4-311.7,925.9-309.5,923.7z"/>
			<path fill="#005AFF" d="M-325.2,915.9L-325.2,915.9c2.2,2.2,5.7,2.2,7.8,0l23.5-23.5c6.5-6.5,6.5-17,0-23.5h0
				c-6.5-6.5-17-6.5-23.5,0h0c-2.2,2.2-2.2,5.7,0,7.8l0,0c2.2,2.2,5.7,2.2,7.8,0l0,0c2.2-2.2,5.7-2.2,7.8,0h0c2.2,2.2,2.2,5.7,0,7.8
				l-23.5,23.5C-327.3,910.3-327.3,913.8-325.2,915.9z"/>
			<path fill="#005AFF" d="M-293.9,947.2L-293.9,947.2c-2.2-2.2-2.2-5.7,0-7.8l39.1-39.1c6.5-6.5,17-6.5,23.5,0l0,0
				c6.5,6.5,6.5,17,0,23.5h0c-2.2,2.2-5.7,2.2-7.8,0l0,0c-2.2-2.2-2.2-5.7,0-7.8l0,0c2.2-2.2,2.2-5.7,0-7.8v0
				c-2.2-2.2-5.7-2.2-7.8,0l-39.1,39.1C-288.2,949.4-291.7,949.4-293.9,947.2z"/>
		</g>
		<path d="M-337.7,904.2l-5.6-22.7c-0.6-2.5-2.8-4.2-5.4-4.2H-365c-3,0-5.7,2.2-5.8,5.2c-0.2,3.2,2.4,5.8,5.5,5.8h12.3l4.4,17.8
			l16.6,88.3c0.5,2.6,2.8,4.5,5.4,4.5h99.2c3,0,5.7-2.2,5.8-5.2c0.2-3.2-2.4-5.8-5.5-5.8H-322l-3.2-16.9l103.9-5.2
			c2.5-0.1,4.6-2,5.1-4.4l11.1-55.3c0.7-3.4-1.9-6.6-5.4-6.6l0,0c-2.6,0-4.9,1.9-5.4,4.4l-10.2,51.1l-101.1,5.1L-337.7,904.2z"/>
	</g>
</g>
</svg>
